{
  "asset": {
    "generator": "Khronos glTF Blender I/O v4.3.47",
    "version": "2.0"
  },
  "extensionsUsed": [
    "KHR_materials_specular"
  ],
  "scene": 0,
  "scenes": [
    {
      "name": "Scene",
      "nodes": [
        0
      ]
    }
  ],
  "nodes": [
    {
      "mesh": 0,
      "name": "Wario Stadium",
      "rotation": [
        0.7071068286895752,
        0,
        0,
        0.7071068286895752
      ]
    }
  ],
  "materials": [
    {
      "doubleSided": true,
      "extensions": {
        "KHR_materials_specular": {
          "specularFactor": 0
        }
      },
      "name": "ami",
      "pbrMetallicRoughness": {
        "baseColorTexture": {
          "index": 0
        },
        "metallicFactor": 0
      }
    },
    {
      "doubleSided": true,
      "extensions": {
        "KHR_materials_specular": {
          "specularFactor": 0
        }
      },
      "name": "lambert336",
      "pbrMetallicRoughness": {
        "baseColorTexture": {
          "index": 1
        },
        "metallicFactor": 0
      }
    },
    {
      "doubleSided": true,
      "extensions": {
        "KHR_materials_specular": {
          "specularFactor": 0
        }
      },
      "name": "lambert329",
      "pbrMetallicRoughness": {
        "baseColorTexture": {
          "index": 2
        },
        "metallicFactor": 0
      }
    },
    {
      "doubleSided": true,
      "extensions": {
        "KHR_materials_specular": {
          "specularFactor": 0
        }
      },
      "name": "lambert331",
      "pbrMetallicRoughness": {
        "baseColorTexture": {
          "index": 3
        },
        "metallicFactor": 0
      }
    },
    {
      "doubleSided": true,
      "extensions": {
        "KHR_materials_specular": {
          "specularFactor": 0
        }
      },
      "name": "dash",
      "pbrMetallicRoughness": {
        "baseColorTexture": {
          "index": 4
        },
        "metallicFactor": 0
      }
    },
    {
      "doubleSided": true,
      "extensions": {
        "KHR_materials_specular": {
          "specularFactor": 0
        }
      },
      "name": "lambert311",
      "pbrMetallicRoughness": {
        "baseColorTexture": {
          "index": 5
        },
        "metallicFactor": 0
      }
    },
    {
      "doubleSided": true,
      "extensions": {
        "KHR_materials_specular": {
          "specularFactor": 0
        }
      },
      "name": "lambert330",
      "pbrMetallicRoughness": {
        "baseColorTexture": {
          "index": 6
        },
        "metallicFactor": 0
      }
    },
    {
      "doubleSided": true,
      "extensions": {
        "KHR_materials_specular": {
          "specularFactor": 0
        }
      },
      "name": "lambert310",
      "pbrMetallicRoughness": {
        "baseColorTexture": {
          "index": 7
        },
        "metallicFactor": 0
      }
    },
    {
      "doubleSided": true,
      "extensions": {
        "KHR_materials_specular": {
          "specularFactor": 0
        }
      },
      "name": "lambert327",
      "pbrMetallicRoughness": {
        "baseColorTexture": {
          "index": 8
        },
        "metallicFactor": 0
      }
    },
    {
      "doubleSided": true,
      "extensions": {
        "KHR_materials_specular": {
          "specularFactor": 0
        }
      },
      "name": "doro",
      "pbrMetallicRoughness": {
        "baseColorTexture": {
          "index": 9
        },
        "metallicFactor": 0
      }
    },
    {
      "doubleSided": true,
      "extensions": {
        "KHR_materials_specular": {
          "specularFactor": 0
        }
      },
      "name": "lambert238",
      "pbrMetallicRoughness": {
        "baseColorTexture": {
          "index": 10
        },
        "metallicFactor": 0
      }
    },
    {
      "doubleSided": true,
      "extensions": {
        "KHR_materials_specular": {
          "specularFactor": 0
        }
      },
      "name": "lambert313",
      "pbrMetallicRoughness": {
        "baseColorTexture": {
          "index": 11
        },
        "metallicFactor": 0
      }
    },
    {
      "doubleSided": true,
      "extensions": {
        "KHR_materials_specular": {
          "specularFactor": 0
        }
      },
      "name": "lambert308",
      "pbrMetallicRoughness": {
        "baseColorTexture": {
          "index": 12
        },
        "metallicFactor": 0
      }
    },
    {
      "doubleSided": true,
      "extensions": {
        "KHR_materials_specular": {
          "specularFactor": 0
        }
      },
      "name": "road",
      "pbrMetallicRoughness": {
        "baseColorTexture": {
          "index": 13
        },
        "metallicFactor": 0
      }
    }
  ],
  "meshes": [
    {
      "name": "Wario Stadium",
      "primitives": [
        {
          "attributes": {
            "POSITION": 0,
            "NORMAL": 1,
            "TEXCOORD_0": 2
          },
          "indices": 3,
          "material": 0
        },
        {
          "attributes": {
            "POSITION": 4,
            "NORMAL": 5,
            "TEXCOORD_0": 6
          },
          "indices": 3,
          "material": 1
        },
        {
          "attributes": {
            "POSITION": 7,
            "NORMAL": 8,
            "TEXCOORD_0": 9
          },
          "indices": 10,
          "material": 2
        },
        {
          "attributes": {
            "POSITION": 11,
            "NORMAL": 12,
            "TEXCOORD_0": 13
          },
          "indices": 14,
          "material": 3
        },
        {
          "attributes": {
            "POSITION": 15,
            "NORMAL": 16,
            "TEXCOORD_0": 17
          },
          "indices": 18,
          "material": 4
        },
        {
          "attributes": {
            "POSITION": 19,
            "NORMAL": 20,
            "TEXCOORD_0": 21
          },
          "indices": 22,
          "material": 5
        },
        {
          "attributes": {
            "POSITION": 23,
            "NORMAL": 24,
            "TEXCOORD_0": 25
          },
          "indices": 26,
          "material": 6
        },
        {
          "attributes": {
            "POSITION": 27,
            "NORMAL": 28,
            "TEXCOORD_0": 29
          },
          "indices": 30,
          "material": 7
        },
        {
          "attributes": {
            "POSITION": 31,
            "NORMAL": 32,
            "TEXCOORD_0": 33
          },
          "indices": 34,
          "material": 8
        },
        {
          "attributes": {
            "POSITION": 35,
            "NORMAL": 36,
            "TEXCOORD_0": 37
          },
          "indices": 38,
          "material": 9
        },
        {
          "attributes": {
            "POSITION": 39,
            "NORMAL": 40,
            "TEXCOORD_0": 41
          },
          "indices": 42,
          "material": 10
        },
        {
          "attributes": {
            "POSITION": 43,
            "NORMAL": 44,
            "TEXCOORD_0": 45
          },
          "indices": 46,
          "material": 11
        },
        {
          "attributes": {
            "POSITION": 47,
            "NORMAL": 48,
            "TEXCOORD_0": 49
          },
          "indices": 50,
          "material": 12
        },
        {
          "attributes": {
            "POSITION": 51,
            "NORMAL": 52,
            "TEXCOORD_0": 53
          },
          "indices": 54,
          "material": 13
        }
      ]
    }
  ],
  "textures": [
    {
      "sampler": 0,
      "source": 0
    },
    {
      "sampler": 0,
      "source": 1
    },
    {
      "sampler": 0,
      "source": 2
    },
    {
      "sampler": 0,
      "source": 3
    },
    {
      "sampler": 0,
      "source": 4
    },
    {
      "sampler": 0,
      "source": 5
    },
    {
      "sampler": 0,
      "source": 6
    },
    {
      "sampler": 0,
      "source": 7
    },
    {
      "sampler": 0,
      "source": 8
    },
    {
      "sampler": 0,
      "source": 9
    },
    {
      "sampler": 0,
      "source": 10
    },
    {
      "sampler": 0,
      "source": 11
    },
    {
      "sampler": 0,
      "source": 12
    },
    {
      "sampler": 0,
      "source": 13
    }
  ],
  "images": [
    {
      "name": "ami",
      "uri": "wStadium_img0.png"
    },
    {
      "name": "lambert336",
      "uri": "wStadium_img1.png"
    },
    {
      "name": "lambert329",
      "uri": "wStadium_img2.png"
    },
    {
      "name": "lambert331",
      "uri": "wStadium_img3.png"
    },
    {
      "name": "dash",
      "uri": "wStadium_img4.png"
    },
    {
      "name": "lambert311",
      "uri": "wStadium_img5.png"
    },
    {
      "name": "lambert330",
      "uri": "wStadium_img6.png"
    },
    {
      "name": "lambert310",
      "uri": "wStadium_img7.png"
    },
    {
      "name": "lambert327",
      "uri": "wStadium_img8.png"
    },
    {
      "name": "doro",
      "uri": "wStadium_img9.png"
    },
    {
      "name": "lambert238",
      "uri": "wStadium_img10.png"
    },
    {
      "name": "lambert313",
      "uri": "wStadium_img11.png"
    },
    {
      "name": "lambert308",
      "uri": "wStadium_img12.png"
    },
    {
      "name": "road",
      "uri": "wStadium_img13.png"
    }
  ],
  "accessors": [
    {
      "bufferView": 0,
      "componentType": 5126,
      "count": 4,
      "max": [
        -44.453128814697266,
        18.75,
        -24.9218807220459
      ],
      "min": [
        -56.953128814697266,
        3.125,
        -24.9375
      ],
      "type": "VEC3"
    },
    {
      "bufferView": 1,
      "componentType": 5126,
      "count": 4,
      "type": "VEC3"
    },
    {
      "bufferView": 2,
      "componentType": 5126,
      "count": 4,
      "type": "VEC2"
    },
    {
      "bufferView": 3,
      "componentType": 5123,
      "count": 6,
      "type": "SCALAR"
    },
    {
      "bufferView": 4,
      "componentType": 5126,
      "count": 4,
      "max": [
        1,
        18.75,
        -18
      ],
      "min": [
        -29.21875,
        18.75,
        -24.3125
      ],
      "type": "VEC3"
    },
    {
      "bufferView": 5,
      "componentType": 5126,
      "count": 4,
      "type": "VEC3"
    },
    {
      "bufferView": 6,
      "componentType": 5126,
      "count": 4,
      "type": "VEC2"
    },
    {
      "bufferView": 7,
      "componentType": 5126,
      "count": 40,
      "max": [
        118.90630340576172,
        284.3280944824219,
        -12.5
      ],
      "min": [
        -295.8594055175781,
        -194.5937957763672,
        -43.34375
      ],
      "type": "VEC3"
    },
    {
      "bufferView": 8,
      "componentType": 5126,
      "count": 40,
      "type": "VEC3"
    },
    {
      "bufferView": 9,
      "componentType": 5126,
      "count": 40,
      "type": "VEC2"
    },
    {
      "bufferView": 10,
      "componentType": 5123,
      "count": 60,
      "type": "SCALAR"
    },
    {
      "bufferView": 11,
      "componentType": 5126,
      "count": 67,
      "max": [
        173.8125,
        347.71881103515625,
        -12.203129768371582
      ],
      "min": [
        -350.75,
        -258,
        -91.40625
      ],
      "type": "VEC3"
    },
    {
      "bufferView": 12,
      "componentType": 5126,
      "count": 67,
      "type": "VEC3"
    },
    {
      "bufferView": 13,
      "componentType": 5126,
      "count": 67,
      "type": "VEC2"
    },
    {
      "bufferView": 14,
      "componentType": 5123,
      "count": 99,
      "type": "SCALAR"
    },
    {
      "bufferView": 15,
      "componentType": 5126,
      "count": 44,
      "max": [
        7.796875,
        196.57809448242188,
        -10.953129768371582
      ],
      "min": [
        -246.29690551757812,
        -84.6875,
        -25.7656307220459
      ],
      "type": "VEC3"
    },
    {
      "bufferView": 16,
      "componentType": 5126,
      "count": 44,
      "type": "VEC3"
    },
    {
      "bufferView": 17,
      "componentType": 5126,
      "count": 44,
      "type": "VEC2"
    },
    {
      "bufferView": 18,
      "componentType": 5123,
      "count": 66,
      "type": "SCALAR"
    },
    {
      "bufferView": 19,
      "componentType": 5126,
      "count": 48,
      "max": [
        235.17190551757812,
        418.5625,
        -38.6875
      ],
      "min": [
        -412.1094055175781,
        -328.84381103515625,
        -141.54690551757812
      ],
      "type": "VEC3"
    },
    {
      "bufferView": 20,
      "componentType": 5126,
      "count": 48,
      "type": "VEC3"
    },
    {
      "bufferView": 21,
      "componentType": 5126,
      "count": 48,
      "type": "VEC2"
    },
    {
      "bufferView": 22,
      "componentType": 5123,
      "count": 72,
      "type": "SCALAR"
    },
    {
      "bufferView": 23,
      "componentType": 5126,
      "count": 100,
      "max": [
        235.17190551757812,
        418.5625,
        -19.8593807220459
      ],
      "min": [
        -412.1094055175781,
        -328.84381103515625,
        -227.79690551757812
      ],
      "type": "VEC3"
    },
    {
      "bufferView": 24,
      "componentType": 5126,
      "count": 100,
      "type": "VEC3"
    },
    {
      "bufferView": 25,
      "componentType": 5126,
      "count": 100,
      "type": "VEC2"
    },
    {
      "bufferView": 26,
      "componentType": 5123,
      "count": 156,
      "type": "SCALAR"
    },
    {
      "bufferView": 27,
      "componentType": 5126,
      "count": 220,
      "max": [
        24.875,
        211.875,
        -9.375
      ],
      "min": [
        -260.6875,
        -118.5625,
        -21.7968807220459
      ],
      "type": "VEC3"
    },
    {
      "bufferView": 28,
      "componentType": 5126,
      "count": 220,
      "type": "VEC3"
    },
    {
      "bufferView": 29,
      "componentType": 5126,
      "count": 220,
      "type": "VEC2"
    },
    {
      "bufferView": 30,
      "componentType": 5123,
      "count": 354,
      "type": "SCALAR"
    },
    {
      "bufferView": 31,
      "componentType": 5126,
      "count": 190,
      "max": [
        94.95313262939453,
        230.875,
        -15.3125
      ],
      "min": [
        -267.6094055175781,
        -88.51563262939453,
        -35.625
      ],
      "type": "VEC3"
    },
    {
      "bufferView": 32,
      "componentType": 5126,
      "count": 190,
      "type": "VEC3"
    },
    {
      "bufferView": 33,
      "componentType": 5126,
      "count": 190,
      "type": "VEC2"
    },
    {
      "bufferView": 34,
      "componentType": 5123,
      "count": 366,
      "type": "SCALAR"
    },
    {
      "bufferView": 35,
      "componentType": 5126,
      "count": 206,
      "max": [
        95.51563262939453,
        211.875,
        -9.375
      ],
      "min": [
        -260.6875,
        -118.5625,
        -19.1875
      ],
      "type": "VEC3"
    },
    {
      "bufferView": 36,
      "componentType": 5126,
      "count": 206,
      "type": "VEC3"
    },
    {
      "bufferView": 37,
      "componentType": 5126,
      "count": 206,
      "type": "VEC2"
    },
    {
      "bufferView": 38,
      "componentType": 5123,
      "count": 366,
      "type": "SCALAR"
    },
    {
      "bufferView": 39,
      "componentType": 5126,
      "count": 448,
      "max": [
        95.17188262939453,
        230.5937957763672,
        -6.71875
      ],
      "min": [
        -267.71881103515625,
        -88.60938262939453,
        -29.21875
      ],
      "type": "VEC3"
    },
    {
      "bufferView": 40,
      "componentType": 5126,
      "count": 448,
      "type": "VEC3"
    },
    {
      "bufferView": 41,
      "componentType": 5126,
      "count": 448,
      "type": "VEC2"
    },
    {
      "bufferView": 42,
      "componentType": 5123,
      "count": 714,
      "type": "SCALAR"
    },
    {
      "bufferView": 43,
      "componentType": 5126,
      "count": 330,
      "max": [
        78.32813262939453,
        206.67190551757812,
        -9.375
      ],
      "min": [
        -201.3125,
        -90.28125,
        -12.921879768371582
      ],
      "type": "VEC3"
    },
    {
      "bufferView": 44,
      "componentType": 5126,
      "count": 330,
      "type": "VEC3"
    },
    {
      "bufferView": 45,
      "componentType": 5126,
      "count": 330,
      "type": "VEC2"
    },
    {
      "bufferView": 46,
      "componentType": 5123,
      "count": 684,
      "type": "SCALAR"
    },
    {
      "bufferView": 47,
      "componentType": 5126,
      "count": 409,
      "max": [
        118.90630340576172,
        284.3280944824219,
        -8.46875
      ],
      "min": [
        -295.8594055175781,
        -194.5937957763672,
        -27.7968807220459
      ],
      "type": "VEC3"
    },
    {
      "bufferView": 48,
      "componentType": 5126,
      "count": 409,
      "type": "VEC3"
    },
    {
      "bufferView": 49,
      "componentType": 5126,
      "count": 409,
      "type": "VEC2"
    },
    {
      "bufferView": 50,
      "componentType": 5123,
      "count": 693,
      "type": "SCALAR"
    },
    {
      "bufferView": 51,
      "componentType": 5126,
      "count": 836,
      "max": [
        95.51563262939453,
        230.85940551757812,
        -8.46875
      ],
      "min": [
        -274.625,
        -115.4531021118164,
        -27.7968807220459
      ],
      "type": "VEC3"
    },
    {
      "bufferView": 52,
      "componentType": 5126,
      "count": 836,
      "type": "VEC3"
    },
    {
      "bufferView": 53,
      "componentType": 5126,
      "count": 836,
      "type": "VEC2"
    },
    {
      "bufferView": 54,
      "componentType": 5123,
      "count": 1686,
      "type": "SCALAR"
    }
  ],
  "bufferViews": [
    {
      "buffer": 0,
      "byteLength": 48,
      "byteOffset": 0,
      "target": 34962
    },
    {
      "buffer": 0,
      "byteLength": 48,
      "byteOffset": 48,
      "target": 34962
    },
    {
      "buffer": 0,
      "byteLength": 32,
      "byteOffset": 96,
      "target": 34962
    },
    {
      "buffer": 0,
      "byteLength": 12,
      "byteOffset": 128,
      "target": 34963
    },
    {
      "buffer": 0,
      "byteLength": 48,
      "byteOffset": 140,
      "target": 34962
    },
    {
      "buffer": 0,
      "byteLength": 48,
      "byteOffset": 188,
      "target": 34962
    },
    {
      "buffer": 0,
      "byteLength": 32,
      "byteOffset": 236,
      "target": 34962
    },
    {
      "buffer": 0,
      "byteLength": 480,
      "byteOffset": 268,
      "target": 34962
    },
    {
      "buffer": 0,
      "byteLength": 480,
      "byteOffset": 748,
      "target": 34962
    },
    {
      "buffer": 0,
      "byteLength": 320,
      "byteOffset": 1228,
      "target": 34962
    },
    {
      "buffer": 0,
      "byteLength": 120,
      "byteOffset": 1548,
      "target": 34963
    },
    {
      "buffer": 0,
      "byteLength": 804,
      "byteOffset": 1668,
      "target": 34962
    },
    {
      "buffer": 0,
      "byteLength": 804,
      "byteOffset": 2472,
      "target": 34962
    },
    {
      "buffer": 0,
      "byteLength": 536,
      "byteOffset": 3276,
      "target": 34962
    },
    {
      "buffer": 0,
      "byteLength": 200,
      "byteOffset": 3812,
      "target": 34963
    },
    {
      "buffer": 0,
      "byteLength": 528,
      "byteOffset": 4012,
      "target": 34962
    },
    {
      "buffer": 0,
      "byteLength": 528,
      "byteOffset": 4540,
      "target": 34962
    },
    {
      "buffer": 0,
      "byteLength": 352,
      "byteOffset": 5068,
      "target": 34962
    },
    {
      "buffer": 0,
      "byteLength": 132,
      "byteOffset": 5420,
      "target": 34963
    },
    {
      "buffer": 0,
      "byteLength": 576,
      "byteOffset": 5552,
      "target": 34962
    },
    {
      "buffer": 0,
      "byteLength": 576,
      "byteOffset": 6128,
      "target": 34962
    },
    {
      "buffer": 0,
      "byteLength": 384,
      "byteOffset": 6704,
      "target": 34962
    },
    {
      "buffer": 0,
      "byteLength": 144,
      "byteOffset": 7088,
      "target": 34963
    },
    {
      "buffer": 0,
      "byteLength": 1200,
      "byteOffset": 7232,
      "target": 34962
    },
    {
      "buffer": 0,
      "byteLength": 1200,
      "byteOffset": 8432,
      "target": 34962
    },
    {
      "buffer": 0,
      "byteLength": 800,
      "byteOffset": 9632,
      "target": 34962
    },
    {
      "buffer": 0,
      "byteLength": 312,
      "byteOffset": 10432,
      "target": 34963
    },
    {
      "buffer": 0,
      "byteLength": 2640,
      "byteOffset": 10744,
      "target": 34962
    },
    {
      "buffer": 0,
      "byteLength": 2640,
      "byteOffset": 13384,
      "target": 34962
    },
    {
      "buffer": 0,
      "byteLength": 1760,
      "byteOffset": 16024,
      "target": 34962
    },
    {
      "buffer": 0,
      "byteLength": 708,
      "byteOffset": 17784,
      "target": 34963
    },
    {
      "buffer": 0,
      "byteLength": 2280,
      "byteOffset": 18492,
      "target": 34962
    },
    {
      "buffer": 0,
      "byteLength": 2280,
      "byteOffset": 20772,
      "target": 34962
    },
    {
      "buffer": 0,
      "byteLength": 1520,
      "byteOffset": 23052,
      "target": 34962
    },
    {
      "buffer": 0,
      "byteLength": 732,
      "byteOffset": 24572,
      "target": 34963
    },
    {
      "buffer": 0,
      "byteLength": 2472,
      "byteOffset": 25304,
      "target": 34962
    },
    {
      "buffer": 0,
      "byteLength": 2472,
      "byteOffset": 27776,
      "target": 34962
    },
    {
      "buffer": 0,
      "byteLength": 1648,
      "byteOffset": 30248,
      "target": 34962
    },
    {
      "buffer": 0,
      "byteLength": 732,
      "byteOffset": 31896,
      "target": 34963
    },
    {
      "buffer": 0,
      "byteLength": 5376,
      "byteOffset": 32628,
      "target": 34962
    },
    {
      "buffer": 0,
      "byteLength": 5376,
      "byteOffset": 38004,
      "target": 34962
    },
    {
      "buffer": 0,
      "byteLength": 3584,
      "byteOffset": 43380,
      "target": 34962
    },
    {
      "buffer": 0,
      "byteLength": 1428,
      "byteOffset": 46964,
      "target": 34963
    },
    {
      "buffer": 0,
      "byteLength": 3960,
      "byteOffset": 48392,
      "target": 34962
    },
    {
      "buffer": 0,
      "byteLength": 3960,
      "byteOffset": 52352,
      "target": 34962
    },
    {
      "buffer": 0,
      "byteLength": 2640,
      "byteOffset": 56312,
      "target": 34962
    },
    {
      "buffer": 0,
      "byteLength": 1368,
      "byteOffset": 58952,
      "target": 34963
    },
    {
      "buffer": 0,
      "byteLength": 4908,
      "byteOffset": 60320,
      "target": 34962
    },
    {
      "buffer": 0,
      "byteLength": 4908,
      "byteOffset": 65228,
      "target": 34962
    },
    {
      "buffer": 0,
      "byteLength": 3272,
      "byteOffset": 70136,
      "target": 34962
    },
    {
      "buffer": 0,
      "byteLength": 1388,
      "byteOffset": 73408,
      "target": 34963
    },
    {
      "buffer": 0,
      "byteLength": 10032,
      "byteOffset": 74796,
      "target": 34962
    },
    {
      "buffer": 0,
      "byteLength": 10032,
      "byteOffset": 84828,
      "target": 34962
    },
    {
      "buffer": 0,
      "byteLength": 6688,
      "byteOffset": 94860,
      "target": 34962
    },
    {
      "buffer": 0,
      "byteLength": 3372,
      "byteOffset": 101548,
      "target": 34963
    }
  ],
  "samplers": [
    {
      "magFilter": 9729,
      "minFilter": 9987
    }
  ],
  "buffers": [
    {
      "uri": "wStadium_data.bin",
      "byteLength": 104920
    }
  ]
}